<?xml version="1.0" encoding="utf-8"?>
<!-- Generator: Adobe Illustrator 26.5.0, SVG Export Plug-In . SVG Version: 6.00 Build 0)  -->
<svg version="1.1" xmlns="http://www.w3.org/2000/svg" xmlns:xlink="http://www.w3.org/1999/xlink" x="0px" y="0px"
	 viewBox="0 0 1000 897.8" style="enable-background:new 0 0 1000 897.8;" xml:space="preserve">
<style type="text/css">
	.st0{fill:#FFFFFF;}
</style>
<g id="Guides">
</g>
<g id="Layer_2">
	<rect x="12.1" y="594.1" class="st0" width="976.7" height="291.1"/>
	<g>
		<g>
			<path d="M770.6,271.4l-109.5-46c0,0,37.5-21.1,70-9.1C763.6,228.2,770.6,271.4,770.6,271.4z"/>
			<path d="M806.4,229.6c0,0,7.9,16.6-1.9,56.1l41.5,17.5v306.5h54.6V269.5L806.4,229.6z"/>
			<path d="M632.4,155.9c0,0-39.7,36.4-47.9,37.2L500,157.6l-208.7,84.6v-75.5h-55.5v100.9L153,304v305.6H99.4v-341l80.9-35.5V114.9
				h165.5V164l151-65.5L632.4,155.9z"/>
		</g>
		<g>
			<path d="M366.5,338.2L200.2,443.8c0,0-3.2,6,2.1,16.3c5.3,10.3,22.9,32.1,25.7,33.1c2.9,1.1,5.5,2.6,17.8-4.8
				C258.2,481.2,409,375.3,409,375.3s-4.4,11.1-22.7,24.8c0,0,21,67.8,91.8,81.5c70.8,13.8,130.1-53,138.3-103.3
				s19.2-73.8,13.7-95.8c-5.5-22-9.7-36.3-9.7-36.3s28.9-31.9,70.8-39.8c41.9-7.9,93.5,10.7,89.4,110.8c0,0,40.6-40.5,6.5-129.8
				c-34.1-89.2-45.3-74.9-61-84.3C710.4,93.8,696.6,67,695,63.8c-1.6-3.2-2.7-8.8,0.6-11.5s12-7.2,9.1-14.2s-16.2-23.6-16.2-23.6
				s-9-4.9-40.9,15.7c-31.9,20.6-29,34.5-29,34.5L631,83.8c0,0,1.2,5.9,13.5,1.2c12.3-4.8,31.6,18,21.4,39s-53.2,60.4-73.8,72.5
				c0,0,19.4,6.6,22.7,34.3c0,0-18.7-28.8-39-30.7c0,0-12.9,2.7-17,4.9c-4.2,2.2-46.2,31.8-62.3,37.5c0,0,11.8,27.7,35.2,23.3
				c23.4-4.4,45.2-12.1,45.2-12.1s-26.6,18.5-12.4,41.4c0,0-79.2,55.2-86,76.5l14.2,52c0,0-4.5,2.3-8.9-10.1s-13.3-39-32-47.2
				c-18.7-8.2-24.3-6-29.7-1.3s-10.5,7.6-20.1-0.9c-9.6-8.4-42.3-52.5-42.3-52.5L366.5,338.2z"/>
			<path d="M502.9,234.7c0,0,43.5-26.6,44.4-28.7c0.9-2.1-5.5-20.6-24-18.5C504.7,189.4,493.6,210.7,502.9,234.7z"/>
			<path d="M487.2,242.4l10.9-4.9c0,0-4-17.6-5.9-22.3c-2-4.6-23.1-11.1-38-6.4c-14.9,4.7-19.5,23-19.5,23l24.9,13.7
				c0,0,27.3,81.9,31.6,85.5s28.2-2.7,26.3-22.4s-12.3-46.1-12.3-46.1S490,251.2,487.2,242.4z"/>
			<path d="M553.3,269.7c0,0-31.5,8.4-36.1,4.9l9,33.9C526.2,308.4,566.7,295.1,553.3,269.7z"/>
			<path d="M439.4,347.4c0,0,8.3,17.5,28.7,11.4c20.4-6.2,15.2-21.3,14.4-25.9s-28.7-83-28.7-83s-10.8-11.8-26.9-10.1
				c-16.1,1.7-27.8,18.1-27.7,23.9c0.1,5.8,2.6,9.6,7.8,12.6c5.2,3,10.5,4.9,12.7,12C421.9,295.5,439.4,347.4,439.4,347.4z"/>
			<path d="M362,307.8l46.6,53.6c0,0,7.2-0.5,13.4-3.6s10.8-4.7,9.9-12.5c-1-7.8-21.3-59.3-21.3-59.3s-12.8-9.4-21.1-9
				C381.1,277.4,351.7,287.2,362,307.8z"/>
		</g>
		<polygon points="588.6,410 622.5,609.6 399.1,609.6 423.3,422.3 		"/>
		<g>
			<path d="M748.2,663.2c-15.2,0-27.6,12.4-27.6,27.6c0,15.4,12.4,27.8,27.6,27.8s27.6-12.4,27.6-27.8
				C775.8,675.6,763.4,663.2,748.2,663.2z"/>
			<path d="M118.7,795.6c-0.8,4.8-1.9,9.6-3.4,14.3l-6.8,22h20.9l-6.4-20.8C121.1,804.7,119.7,799.6,118.7,795.6z"/>
			<path d="M248.1,798c-2.2-1-5.6-1.5-10.4-1.5h-12.9v57.3h13.1c5.3,0,9.3-0.9,12-2.6c2.7-1.7,4.8-4.5,6.3-8.3
				c1.9-5.1,2.9-11.2,2.9-18.3c0-7.6-1-13.6-3.1-17.9C254,802.4,251.3,799.5,248.1,798z"/>
			<path d="M704.4,815.1c1.2-2,1.7-4.3,1.7-6.9c0-3.8-1.1-6.8-3.3-8.9c-2.2-2.2-5.5-3.2-9.9-3.2h-19.4v24.8H691
				c3.8,0,6.7-0.5,8.7-1.4C701.7,818.5,703.3,817,704.4,815.1z"/>
			<polygon points="260.9,655.7 257.5,655.7 243,710.6 275.5,710.6 			"/>
			<path d="M12.1,594.1v291.1h976.7V594.1H12.1z M219.9,616.1h78.7l43.6,149.7h-52l-4.1-15.2h-53.9l-4.1,15.2h-52L219.9,616.1z
				 M109.8,710.6H74.3c-25,0-45.3-17.1-45.3-47.3c0-34.6,23.7-47.3,47.7-47.3h88.5v39.6H88.8c-5.8,0-9.8,2.1-9.8,7.5
				c0,5.6,4.1,7.9,9.8,7.9h33.4c28.7,0,47.7,16.9,47.7,47c0,28.4-21.4,47.7-49.2,47.7H31.3l0.6-39.6h78c6.6,0,9.8-3,9.8-7.9
				C119.8,713.6,116.6,710.6,109.8,710.6z M83.8,862.7h-8.1v-35.3h-32v35.3h-8.1v-75h8.1v30.8h32v-30.8h8.1V862.7z M139.2,862.7
				L132,840h-25.9l-6.7,22.7h-8.6l23.7-75h8.7l25.2,75H139.2z M203.1,862.7h-8.3l-32.3-59v59h-7.8v-75h8.3l32.3,59v-59h7.8V862.7z
				 M263.8,846.4c-2.5,5.9-5.7,10.1-9.6,12.6c-3.9,2.5-9,3.7-15.3,3.7h-22.2v-75h21.2c5.3,0,9.2,0.5,12,1.4c3.6,1.2,6.7,3.4,9.3,6.5
				c2.6,3.2,4.7,7.2,6.1,12c1.5,4.8,2.2,10.5,2.2,17.2C267.5,833.3,266.3,840.5,263.8,846.4z M304.3,830.9v31.8h-8.1v-31.8
				l-23.7-43.2h9.9l12.1,22.6c2.4,4.5,4.5,8.7,6.3,12.7c1.8-3.9,4-8.3,6.7-13.3l11.9-22.1h9.4L304.3,830.9z M394.6,862.7h-7.8V800
				l-17.9,62.7h-7.3l-17.8-63.8v63.8h-7.8v-75h12.2l14.6,53.1l2.9,11.1c0.7-2.8,1.8-6.8,3.3-12l14.7-52.2h10.9V862.7z M449.3,862.7
				l-7.2-22.7h-25.9l-6.7,22.7H401l23.7-75h8.7l25.2,75H449.3z M403.5,690.5h-1.7v75.3h-50V616.1h50l59.4,77.8h1.5v-77.8h50v149.7
				h-50L403.5,690.5z M513.2,862.7h-8.3l-32.3-59v59h-7.8v-75h8.3l32.3,59v-59h7.8V862.7z M526.7,616.1h139v39.6h-44.5v110.1h-50
				V655.7h-44.5V616.1z M594,853.2c-2,3.5-4.7,6.2-8.2,8c-3.5,1.8-7.6,2.8-12.5,2.8c-7.6,0-13.7-2.3-18.2-6.9
				c-4.5-4.6-6.9-10.8-7-18.6l7.7-0.8c0.4,4.1,1.3,7.3,2.8,9.6c1.4,2.3,3.5,4.2,6.2,5.5c2.7,1.4,5.7,2.1,9.1,2.1
				c4.8,0,8.6-1.2,11.3-3.5c2.7-2.4,4-5.4,4-9.2c0-2.2-0.5-4.1-1.5-5.8c-1-1.7-2.4-3-4.4-4.1c-2-1.1-6.2-2.5-12.7-4.5
				c-5.8-1.7-9.9-3.5-12.4-5.2c-2.5-1.7-4.4-3.9-5.7-6.6c-1.4-2.7-2-5.7-2-9.1c0-6.1,2-11,5.9-14.9c3.9-3.9,9.2-5.8,15.9-5.8
				c4.6,0,8.6,0.9,12,2.7c3.4,1.8,6.1,4.4,8,7.8c1.9,3.4,2.9,7.3,3,11.9l-7.8,0.7c-0.4-4.9-1.9-8.5-4.4-10.8
				c-2.5-2.4-6-3.5-10.6-3.5c-4.6,0-8.1,1-10.5,3.1c-2.4,2.1-3.6,4.7-3.6,8c0,3,0.9,5.4,2.7,7.1c1.8,1.7,5.8,3.4,12,5.1
				c6.1,1.7,10.3,3.1,12.8,4.4c3.7,1.9,6.6,4.4,8.5,7.6c1.9,3.1,2.9,6.8,2.9,11.2C597.1,845.7,596.1,849.6,594,853.2z M654.2,862.7
				h-45.9v-75h44.4v8.8h-36.3v22.9h34v8.8h-34v25.5h37.7V862.7z M709.4,862.7l-8.2-15.6c-3.2-6.1-5.6-10.2-7.2-12.3
				c-1.6-2.1-3.2-3.5-4.7-4.3c-1.5-0.7-3.6-1.1-6.4-1.1h-9.4v33.3h-8.1v-75h27.3c5.7,0,9.9,0.7,12.6,2.1c2.7,1.4,4.9,3.7,6.7,7
				s2.6,7,2.6,11.3c0,5.7-1.5,10.2-4.4,13.7c-3,3.5-7.2,5.7-12.9,6.7c2.3,1.4,4,2.8,5.2,4.2c2.4,2.9,4.6,6.1,6.4,9.6l10.7,20.4
				H709.4z M751.9,862.7h-8.4l-23.9-75h8.8l16,54.5c1.2,4.2,2.3,8.3,3.2,12.3c1-4.1,2-8.2,3.3-12.3l16.6-54.5h8.3L751.9,862.7z
				 M792.9,862.7h-8.1v-75h8.1V862.7z M748.2,767.9c-42.5,0-77.2-34.4-77.2-77.2c0-42.5,34.6-77,77.2-77s77.2,34.4,77.2,77
				C825.4,733.5,790.8,767.9,748.2,767.9z M849.4,857.7c-4.5,4.1-10,6.2-16.5,6.2c-5.7,0-10.6-1.4-14.6-4.2c-4-2.8-7.3-7.2-9.9-13.4
				c-2.6-6.1-3.9-13.4-3.9-21.8c0-8.3,1.3-15.2,3.9-21c2.6-5.7,6.1-10,10.5-12.9c4.4-2.9,9.3-4.4,14.7-4.4c5.9,0,11,1.8,15.3,5.5
				c4.3,3.7,7.3,9.1,9,16.3l-8,2.3c-2.7-10.4-8.2-15.6-16.4-15.6c-4.1,0-7.6,1-10.7,3.1c-3,2.1-5.4,5.4-7.2,9.8
				c-1.8,4.4-2.7,10-2.7,16.8c0,10.3,1.8,18,5.4,23.1c3.6,5.1,8.4,7.7,14.4,7.7c4.4,0,8.3-1.6,11.5-4.7c3.2-3.2,5.4-7.9,6.5-14.3
				l8.2,2.5C857.1,847.3,854,853.6,849.4,857.7z M915.1,862.7h-45.9v-75h44.4v8.8h-36.3v22.9h34v8.8h-34v25.5h37.7V862.7z
				 M969.5,853.2c-2,3.5-4.7,6.2-8.2,8c-3.5,1.8-7.6,2.8-12.5,2.8c-7.6,0-13.7-2.3-18.2-6.9c-4.5-4.6-6.9-10.8-7-18.6l7.7-0.8
				c0.4,4.1,1.3,7.3,2.8,9.6c1.4,2.3,3.5,4.2,6.2,5.5c2.7,1.4,5.7,2.1,9.1,2.1c4.8,0,8.6-1.2,11.3-3.5c2.7-2.4,4-5.4,4-9.2
				c0-2.2-0.5-4.1-1.5-5.8c-1-1.7-2.4-3-4.4-4.1c-2-1.1-6.2-2.5-12.7-4.5c-5.8-1.7-9.9-3.5-12.4-5.2c-2.5-1.7-4.4-3.9-5.7-6.6
				c-1.4-2.7-2-5.7-2-9.1c0-6.1,2-11,5.9-14.9c3.9-3.9,9.2-5.8,15.9-5.8c4.6,0,8.6,0.9,12,2.7c3.4,1.8,6.1,4.4,8,7.8
				c1.9,3.4,2.9,7.3,3,11.9l-7.8,0.7c-0.4-4.9-1.9-8.5-4.4-10.8c-2.5-2.4-6-3.5-10.6-3.5c-4.6,0-8.1,1-10.5,3.1
				c-2.4,2.1-3.6,4.7-3.6,8c0,3,0.9,5.4,2.7,7.1c1.8,1.7,5.8,3.4,12,5.1c6.1,1.7,10.3,3.1,12.8,4.4c3.7,1.9,6.6,4.4,8.5,7.6
				c1.9,3.1,2.9,6.8,2.9,11.2C972.6,845.7,971.6,849.6,969.5,853.2z M927.6,765.8h-89.4l0.6-39.6h78c6.6,0,9.8-3,9.8-7.9
				c0-4.7-3.2-7.7-10-7.7h-35.5c-25,0-45.3-17.1-45.3-47.3c0-34.6,23.7-47.3,47.7-47.3h88.5v39.6h-76.3c-5.8,0-9.8,2.1-9.8,7.5
				c0,5.6,4.1,7.9,9.8,7.9h33.4c28.7,0,47.7,16.9,47.7,47C976.8,746.5,955.4,765.8,927.6,765.8z"/>
			<path d="M428.8,795.6c-0.8,4.8-1.9,9.6-3.4,14.3l-6.8,22h20.9l-6.4-20.8C431.2,804.7,429.7,799.6,428.8,795.6z"/>
		</g>
	</g>
</g>
</svg>
