<?xml version="1.0" encoding="utf-8"?>
<!-- Generator: Adobe Illustrator 26.5.0, SVG Export Plug-In . SVG Version: 6.00 Build 0)  -->
<svg version="1.1" id="Layer_1" xmlns="http://www.w3.org/2000/svg" xmlns:xlink="http://www.w3.org/1999/xlink" x="0px" y="0px"
	 viewBox="0 0 2539.5 784.4" style="enable-background:new 0 0 2539.5 784.4;" xml:space="preserve">
<g>
	<path d="M882.9,326.6l-120.4-50.6c0,0,41.2-23.2,77-10C875.2,279.1,882.9,326.6,882.9,326.6z"/>
	<path d="M922.3,280.6c0,0,8.7,18.3-2.1,61.7l45.7,19.2v337h60v-374L922.3,280.6z"/>
	<path d="M731,199.6c0,0-43.7,40-52.7,40.9l-92.9-39.1l-229.5,93v-83h-61v111l-91,40v336h-59v-375l89-39v-130h182v54l166-72
		L731,199.6z"/>
</g>
<g>
	<path d="M438.6,400L255.7,516.2c0,0-3.5,6.6,2.4,17.9c5.9,11.4,25.1,35.3,28.3,36.4c3.1,1.2,6,2.8,19.6-5.2
		c13.6-8.1,179.4-124.5,179.4-124.5s-4.8,12.2-25,27.2c0,0,23.1,74.5,101,89.7s143-58.3,152.1-113.6c9.1-55.3,21.1-81.2,15.1-105.3
		s-10.6-39.9-10.6-39.9s31.8-35.1,77.9-43.8S898.5,266.9,894,377c0,0,44.6-44.6,7.1-142.7S851.3,152,834,141.7
		c-17.3-10.3-32.4-39.8-34.2-43.3c-1.8-3.6-3-9.7,0.7-12.7c3.6-3,13.2-8,10-15.6c-3.2-7.6-17.8-25.9-17.8-25.9s-9.9-5.4-45,17.3
		c-35.1,22.7-31.8,37.9-31.8,37.9l13.7,21c0,0,1.3,6.5,14.9,1.3c13.5-5.2,34.7,19.8,23.6,42.9c-11.2,23.2-58.5,66.4-81.2,79.8
		c0,0,21.3,7.2,25,37.7c0,0-20.5-31.6-42.9-33.7c0,0-14.1,3-18.7,5.4s-50.8,34.9-68.5,41.3c0,0,13,30.5,38.7,25.6
		c25.7-4.9,49.7-13.3,49.7-13.3s-29.3,20.3-13.7,45.6c0,0-87.1,60.7-94.6,84.1l15.6,57.2c0,0-5,2.5-9.8-11.1
		c-4.8-13.6-14.7-42.9-35.2-51.9c-20.6-9-26.8-6.6-32.6-1.4c-5.9,5.2-11.5,8.3-22-1S431.2,371,431.2,371L438.6,400z"/>
	<path d="M588.6,286.2c0,0,47.8-29.3,48.8-31.6c1-2.3-6-22.6-26.4-20.4C590.6,236.4,578.3,259.9,588.6,286.2z"/>
	<path d="M571.3,294.7l11.9-5.4c0,0-4.4-19.4-6.5-24.5s-25.4-12.2-41.8-7c-16.4,5.2-21.5,25.3-21.5,25.3l27.4,15
		c0,0,30.1,90,34.8,94c4.7,4,31-3,28.9-24.6c-2.1-21.6-13.5-50.7-13.5-50.7S574.3,304.4,571.3,294.7z"/>
	<path d="M644,324.7c0,0-34.7,9.2-39.7,5.4l9.9,37.3C614.2,367.3,658.7,352.6,644,324.7z"/>
	<path d="M518.7,410.2c0,0,9.2,19.3,31.6,12.5c22.4-6.8,16.7-23.4,15.8-28.4c-0.9-5-31.6-91.2-31.6-91.2s-11.9-13-29.6-11.1
		c-17.7,1.9-30.6,19.9-30.5,26.3s2.8,10.5,8.5,13.9c5.7,3.3,11.5,5.4,14,13.2S518.7,410.2,518.7,410.2z"/>
	<path d="M433.7,366.7l51.2,59c0,0,7.9-0.5,14.7-3.9s11.9-5.2,10.8-13.8c-1.1-8.6-23.4-65.2-23.4-65.2s-14.1-10.4-23.2-9.9
		S422.3,344,433.7,366.7z"/>
</g>
<polygon points="682.8,479 720.1,698.5 474.4,698.5 501,492.5 "/>
<rect x="48.9" y="681.5" width="2440" height="29.4"/>
<g>
	<g>
		<path d="M1064.9,437.1h111.4c9.5,0,14-4.3,14-11.3c0-6.7-4.6-11-14.3-11h-50.7c-35.7,0-64.7-24.4-64.7-67.4
			c0-49.4,33.9-67.4,68.1-67.4H1255v56.5h-109c-8.2,0-14,3.1-14,10.7c0,7.9,5.8,11.3,14,11.3h47.6c40.9,0,68.1,24.1,68.1,67.1
			c0,40.6-30.5,68.1-70.2,68.1H1064L1064.9,437.1z"/>
		<path d="M1427.7,471.9h-76.9l-5.8,21.7h-74.2l62.3-213.6h112.3l62.3,213.6h-74.2L1427.7,471.9z M1412.5,414.9l-20.8-78.4h-4.9
			l-20.8,78.4H1412.5z"/>
		<path d="M1521.4,280h71.4l84.8,111.1h2.1V280h71.4v213.6h-71.4l-84.5-107.4h-2.4v107.4h-71.4V280z"/>
		<path d="M1834.6,336.4h-63.5V280h198.4v56.5H1906v157.2h-71.4V336.4z"/>
		<path d="M1977.1,386.5c0-60.7,49.4-109.9,110.2-109.9c60.7,0,110.2,49.1,110.2,109.9c0,61-49.4,110.2-110.2,110.2
			C2026.5,496.7,1977.1,447.5,1977.1,386.5z M2126.6,386.5c0-21.7-17.7-39.4-39.4-39.4c-21.7,0-39.4,17.7-39.4,39.4
			c0,22,17.7,39.7,39.4,39.7C2108.9,426.2,2126.6,408.5,2126.6,386.5z"/>
		<path d="M2216.7,437.1h111.4c9.5,0,14-4.3,14-11.3c0-6.7-4.6-11-14.3-11h-50.7c-35.7,0-64.7-24.4-64.7-67.4
			c0-49.4,33.9-67.4,68.1-67.4h126.3v56.5h-109c-8.2,0-14,3.1-14,10.7c0,7.9,5.8,11.3,14,11.3h47.6c40.9,0,68.1,24.1,68.1,67.1
			c0,40.6-30.5,68.1-70.2,68.1h-127.6L2216.7,437.1z"/>
	</g>
	<g>
		<path d="M1070.1,649.5v-107h11.6v43.9h45.6v-43.9h11.6v107h-11.6v-50.4h-45.6v50.4H1070.1z"/>
		<path d="M1149,649.5l33.8-107h12.4l35.9,107h-13.3l-10.2-32.4h-36.9l-9.5,32.4H1149z M1174.2,605.6h29.9l-9.1-29.6
			c-2.8-9.1-4.9-16.5-6.2-22.2c-1.1,6.9-2.7,13.7-4.8,20.4L1174.2,605.6z"/>
		<path d="M1240,649.5v-107h11.9l46.1,84.2v-84.2h11.1v107h-11.9l-46.1-84.2v84.2H1240z"/>
		<path d="M1328.6,649.5v-107h30.3c7.5,0,13.2,0.7,17.1,2c5.1,1.7,9.5,4.8,13.3,9.3c3.7,4.5,6.7,10.2,8.8,17.1
			c2.1,6.9,3.1,15.1,3.1,24.5c0,12.1-1.8,22.4-5.3,30.8c-3.6,8.4-8.1,14.4-13.7,18c-5.6,3.5-12.9,5.3-21.9,5.3H1328.6z
			 M1340.2,636.9h18.7c7.5,0,13.3-1.2,17.2-3.7c3.9-2.5,6.9-6.4,9-11.9c2.8-7.3,4.2-15.9,4.2-26.1c0-10.9-1.5-19.4-4.4-25.6
			c-2.9-6.2-6.7-10.4-11.4-12.4c-3.1-1.4-8.1-2.1-14.8-2.1h-18.4V636.9z"/>
		<path d="M1442,649.5v-45.3l-33.8-61.7h14.2l17.2,32.3c3.4,6.4,6.4,12.4,9,18.1c2.6-5.6,5.8-11.9,9.6-18.9l17-31.5h13.4l-35,61.7
			v45.3H1442z"/>
		<path d="M1498.8,649.5v-107h17.5l20.8,75.8l4.2,15.8c1-3.9,2.6-9.7,4.7-17.2l21-74.5h15.6v107h-11.2V560l-25.6,89.5h-10.4
			l-25.4-91v91H1498.8z"/>
		<path d="M1591.6,649.5l33.8-107h12.4l35.9,107h-13.3l-10.2-32.4h-36.9l-9.5,32.4H1591.6z M1616.8,605.6h29.9l-9.1-29.6
			c-2.8-9.1-4.9-16.5-6.2-22.2c-1.1,6.9-2.7,13.7-4.8,20.4L1616.8,605.6z"/>
		<path d="M1682.7,649.5v-107h11.9l46.1,84.2v-84.2h11.1v107h-11.9l-46.1-84.2v84.2H1682.7z"/>
		<path d="M1801.7,615l11-1.2c0.6,5.9,1.9,10.5,4,13.8c2.1,3.3,5,5.9,8.9,7.9c3.8,2,8.2,3,13,3c6.9,0,12.3-1.7,16.1-5.1
			c3.8-3.4,5.7-7.8,5.7-13.2c0-3.2-0.7-5.9-2.1-8.3c-1.4-2.4-3.5-4.3-6.3-5.8c-2.8-1.5-8.8-3.6-18.1-6.4c-8.3-2.5-14.2-4.9-17.7-7.4
			c-3.5-2.5-6.2-5.6-8.2-9.5c-1.9-3.8-2.9-8.1-2.9-13c0-8.7,2.8-15.7,8.4-21.2c5.6-5.5,13.1-8.2,22.6-8.2c6.5,0,12.2,1.3,17.1,3.9
			c4.9,2.6,8.7,6.3,11.4,11.1s4.1,10.5,4.3,17l-11.2,1c-0.6-7-2.7-12.1-6.2-15.5s-8.6-5-15.1-5c-6.6,0-11.6,1.5-15,4.4
			c-3.5,2.9-5.2,6.8-5.2,11.4c0,4.3,1.3,7.7,3.8,10.1c2.5,2.4,8.2,4.8,17.1,7.2c8.7,2.4,14.7,4.5,18.2,6.2
			c5.4,2.7,9.4,6.3,12.1,10.8c2.7,4.4,4.1,9.8,4.1,15.9c0,6.1-1.4,11.7-4.3,16.7c-2.9,5-6.8,8.9-11.7,11.5
			c-4.9,2.6-10.9,3.9-17.8,3.9c-10.9,0-19.5-3.3-26-9.8C1805.2,635,1801.9,626.2,1801.7,615z"/>
		<path d="M1887.6,649.5v-107h63.4v12.6h-51.8v32.7h48.5v12.6h-48.5v36.4h53.9v12.6H1887.6z"/>
		<path d="M1969.1,649.5v-107h38.9c8.1,0,14.1,1,18,3s7,5.3,9.5,10c2.5,4.6,3.7,10,3.7,16.2c0,8.1-2.1,14.6-6.3,19.6
			c-4.2,5-10.3,8.2-18.4,9.6c3.3,2,5.7,3.9,7.4,6c3.5,4.1,6.5,8.6,9.1,13.7l15.3,29.1h-14.6l-11.7-22.3c-4.5-8.7-8-14.6-10.3-17.6
			s-4.5-5.1-6.7-6.1c-2.2-1-5.2-1.6-9.1-1.6h-13.4v47.5H1969.1z M1980.7,589.7h25c5.5,0,9.6-0.7,12.4-2c2.8-1.3,5.1-3.4,6.7-6.2
			c1.7-2.8,2.5-6.1,2.5-9.9c0-5.4-1.6-9.6-4.7-12.7c-3.2-3.1-7.9-4.6-14.1-4.6h-27.7V589.7z"/>
		<path d="M2080.7,649.5l-34.1-107h12.6l22.9,77.8c1.8,6,3.3,11.9,4.6,17.5c1.4-5.9,2.9-11.7,4.7-17.5l23.8-77.8h11.8l-34.3,107
			H2080.7z"/>
		<path d="M2139.4,649.5v-107h11.6v107H2139.4z"/>
		<path d="M2233.6,612l11.7,3.6c-2.6,12-7.1,21-13.5,26.9c-6.4,5.9-14.3,8.9-23.5,8.9c-8.1,0-15.1-2-20.8-6
			c-5.8-4-10.5-10.3-14.2-19.1c-3.7-8.8-5.5-19.1-5.5-31c0-11.8,1.8-21.8,5.5-29.9c3.7-8.2,8.7-14.3,14.9-18.5
			c6.3-4.2,13.3-6.2,21-6.2c8.5,0,15.8,2.6,21.8,7.9s10.4,13,12.8,23.2l-11.4,3.3c-3.9-14.8-11.7-22.3-23.5-22.3
			c-5.8,0-10.9,1.5-15.2,4.5c-4.3,3-7.7,7.7-10.3,14c-2.6,6.3-3.8,14.3-3.8,24c0,14.7,2.6,25.7,7.7,33c5.2,7.3,12,11,20.6,11
			c6.3,0,11.8-2.2,16.4-6.8C2229,628,2232.1,621.1,2233.6,612z"/>
		<path d="M2260,649.5v-107h63.4v12.6h-51.8v32.7h48.5v12.6h-48.5v36.4h53.9v12.6H2260z"/>
		<path d="M2337.6,615l11-1.2c0.6,5.9,1.9,10.5,4,13.8c2.1,3.3,5,5.9,8.9,7.9c3.8,2,8.2,3,13,3c6.9,0,12.3-1.7,16.1-5.1
			c3.8-3.4,5.7-7.8,5.7-13.2c0-3.2-0.7-5.9-2.1-8.3c-1.4-2.4-3.5-4.3-6.3-5.8c-2.8-1.5-8.8-3.6-18.1-6.4c-8.3-2.5-14.2-4.9-17.7-7.4
			c-3.5-2.5-6.2-5.6-8.2-9.5c-1.9-3.8-2.9-8.1-2.9-13c0-8.7,2.8-15.7,8.4-21.2c5.6-5.5,13.1-8.2,22.6-8.2c6.5,0,12.2,1.3,17.1,3.9
			c4.9,2.6,8.7,6.3,11.4,11.1s4.1,10.5,4.3,17l-11.2,1c-0.6-7-2.7-12.1-6.2-15.5s-8.6-5-15.1-5c-6.6,0-11.6,1.5-15,4.4
			c-3.5,2.9-5.2,6.8-5.2,11.4c0,4.3,1.3,7.7,3.8,10.1c2.5,2.4,8.2,4.8,17.1,7.2c8.7,2.4,14.7,4.5,18.2,6.2
			c5.4,2.7,9.4,6.3,12.1,10.8c2.7,4.4,4.1,9.8,4.1,15.9c0,6.1-1.4,11.7-4.3,16.7c-2.9,5-6.8,8.9-11.7,11.5
			c-4.9,2.6-10.9,3.9-17.8,3.9c-10.9,0-19.5-3.3-26-9.8C2341.2,635,2337.9,626.2,2337.6,615z"/>
	</g>
</g>
</svg>
