<?xml version="1.0" encoding="utf-8"?>
<!-- Generator: Adobe Illustrator 26.5.0, SVG Export Plug-In . SVG Version: 6.00 Build 0)  -->
<svg version="1.1" id="Layer_1" xmlns="http://www.w3.org/2000/svg" xmlns:xlink="http://www.w3.org/1999/xlink" x="0px" y="0px"
	 viewBox="0 0 1092.1 1000.8" style="enable-background:new 0 0 1092.1 1000.8;" xml:space="preserve">
<g>
	<rect x="11.2" y="638.5" width="1074" height="29.4"/>
	<g>
		<path d="M845.2,294.5l-120.4-50.6c0,0,41.2-23.2,77-10C837.6,247,845.2,294.5,845.2,294.5z"/>
		<path d="M884.6,248.6c0,0,8.7,18.3-2.1,61.7l45.7,19.2v337h60v-374L884.6,248.6z"/>
		<path d="M693.4,167.6c0,0-43.7,40-52.7,40.9l-92.9-39.1l-229.5,93v-83h-61v111l-91,40v336h-59v-375l89-39v-130h182v54l166-72
			L693.4,167.6z"/>
	</g>
	<g>
		<path d="M400.9,368L218,484.2c0,0-3.5,6.6,2.4,17.9c5.9,11.4,25.1,35.3,28.3,36.4c3.1,1.2,6,2.8,19.6-5.2
			c13.6-8.1,179.4-124.5,179.4-124.5s-4.8,12.2-25,27.2c0,0,23.1,74.5,101,89.7s143-58.3,152.1-113.6c9.1-55.3,21.1-81.2,15.1-105.3
			c-6-24.2-10.6-39.9-10.6-39.9s31.8-35.1,77.9-43.8c46.1-8.7,102.8,11.7,98.3,121.9c0,0,44.6-44.6,7.1-142.7
			c-37.5-98.1-49.8-82.3-67.1-92.7c-17.3-10.3-32.4-39.8-34.2-43.3s-3-9.7,0.7-12.7c3.6-3,13.2-8,10-15.6
			c-3.2-7.6-17.8-25.9-17.8-25.9s-9.9-5.4-45,17.3c-35.1,22.7-31.8,37.9-31.8,37.9l13.7,21c0,0,1.3,6.5,14.9,1.3
			s34.7,19.8,23.6,42.9S671.7,199,649,212.3c0,0,21.3,7.2,25,37.7c0,0-20.5-31.6-42.9-33.7c0,0-14.1,3-18.7,5.4
			c-4.6,2.4-50.8,34.9-68.5,41.3c0,0,13,30.5,38.7,25.6s49.7-13.3,49.7-13.3s-29.3,20.3-13.7,45.6c0,0-87.1,60.7-94.6,84.1
			l15.6,57.2c0,0-5,2.5-9.8-11.1s-14.7-42.9-35.2-51.9c-20.6-9-26.8-6.6-32.6-1.4c-5.9,5.2-11.5,8.3-22-1s-46.5-57.8-46.5-57.8
			L400.9,368z"/>
		<path d="M550.9,254.2c0,0,47.8-29.3,48.8-31.6c1-2.3-6-22.6-26.4-20.4C552.9,204.4,540.7,227.9,550.9,254.2z"/>
		<path d="M533.7,262.6l11.9-5.4c0,0-4.4-19.4-6.5-24.5c-2.2-5.1-25.4-12.2-41.8-7c-16.4,5.2-21.5,25.3-21.5,25.3l27.4,15
			c0,0,30.1,90,34.8,94c4.7,4,31-3,28.9-24.6c-2.1-21.6-13.5-50.7-13.5-50.7S536.7,272.3,533.7,262.6z"/>
		<path d="M606.3,292.6c0,0-34.7,9.2-39.7,5.4l9.9,37.3C576.6,335.3,621.1,320.6,606.3,292.6z"/>
		<path d="M481.1,378.1c0,0,9.2,19.3,31.6,12.5c22.4-6.8,16.7-23.4,15.8-28.4c-0.9-5-31.6-91.2-31.6-91.2s-11.9-13-29.6-11.1
			c-17.7,1.9-30.6,19.9-30.5,26.3s2.8,10.5,8.5,13.9c5.7,3.3,11.5,5.4,14,13.2C461.8,321.1,481.1,378.1,481.1,378.1z"/>
		<path d="M396,334.6l51.2,59c0,0,7.9-0.5,14.7-3.9c6.8-3.4,11.9-5.2,10.8-13.8c-1.1-8.6-23.4-65.2-23.4-65.2s-14.1-10.4-23.2-9.9
			C417,301.2,384.7,311.9,396,334.6z"/>
	</g>
	<polygon points="645.2,447 682.5,666.4 436.8,666.4 463.4,460.5 	"/>
</g>
<g>
	<g>
		<path d="M37.8,821.5h84.4c7.2,0,10.6-3.2,10.6-8.6c0-5.1-3.5-8.3-10.9-8.3H83.6c-27,0-49-18.5-49-51.1c0-37.5,25.7-51.1,51.6-51.1
			h95.7v42.8H99.3c-6.2,0-10.6,2.3-10.6,8.1c0,6,4.4,8.6,10.6,8.6h36.1c31,0,51.6,18.3,51.6,50.9c0,30.7-23.1,51.6-53.2,51.6H37.1
			L37.8,821.5z"/>
		<path d="M312.7,847.9h-58.3l-4.4,16.4h-56.2L241,702.5h85.1l47.2,161.8h-56.2L312.7,847.9z M301.1,804.7l-15.7-59.4h-3.7
			L266,804.7H301.1z"/>
		<path d="M383.6,702.5h54.1l64.3,84.2h1.6v-84.2h54.1v161.8h-54.1l-64-81.4h-1.8v81.4h-54.1V702.5z"/>
		<path d="M620.8,745.2h-48.1v-42.8H723v42.8h-48.1v119.1h-54.1V745.2z"/>
		<path d="M728.8,783.2c0-46,37.5-83.2,83.5-83.2s83.5,37.2,83.5,83.2c0,46.2-37.5,83.5-83.5,83.5S728.8,829.4,728.8,783.2z
			 M842.1,783.2c0-16.4-13.4-29.8-29.8-29.8s-29.8,13.4-29.8,29.8c0,16.6,13.4,30.1,29.8,30.1S842.1,799.8,842.1,783.2z"/>
		<path d="M910.2,821.5h84.4c7.2,0,10.6-3.2,10.6-8.6c0-5.1-3.5-8.3-10.9-8.3H956c-27,0-49-18.5-49-51.1c0-37.5,25.7-51.1,51.6-51.1
			h95.7v42.8h-82.5c-6.2,0-10.6,2.3-10.6,8.1c0,6,4.4,8.6,10.6,8.6h36.1c31,0,51.6,18.3,51.6,50.9c0,30.7-23.1,51.6-53.2,51.6h-96.6
			L910.2,821.5z"/>
	</g>
	<g>
		<path d="M41.7,982.4v-81.1h8.8v33.3h34.6v-33.3h8.8v81.1h-8.8v-38.2H50.5v38.2H41.7z"/>
		<path d="M101.5,982.4l25.6-81.1h9.4l27.2,81.1h-10.1l-7.7-24.6h-28l-7.2,24.6H101.5z M120.6,949.1h22.6l-6.9-22.5
			c-2.1-6.9-3.7-12.5-4.7-16.8c-0.9,5.2-2.1,10.4-3.6,15.5L120.6,949.1z"/>
		<path d="M170.5,982.4v-81.1h9l34.9,63.8v-63.8h8.4v81.1h-9l-34.9-63.8v63.8H170.5z"/>
		<path d="M237.5,982.4v-81.1h22.9c5.7,0,10,0.5,12.9,1.5c3.9,1.3,7.2,3.6,10.1,7.1c2.8,3.4,5,7.8,6.6,13c1.6,5.2,2.4,11.4,2.4,18.6
			c0,9.2-1.3,17-4,23.4c-2.7,6.4-6.1,10.9-10.4,13.6c-4.2,2.7-9.7,4-16.6,4H237.5z M246.3,972.8h14.2c5.7,0,10-0.9,13-2.8
			c2.9-1.9,5.2-4.9,6.8-9c2.1-5.5,3.2-12.1,3.2-19.7c0-8.2-1.1-14.7-3.3-19.4c-2.2-4.7-5.1-7.8-8.6-9.4c-2.4-1.1-6.1-1.6-11.2-1.6
			h-13.9V972.8z"/>
		<path d="M323.5,982.4v-34.3l-25.6-46.7h10.7l13.1,24.5c2.6,4.8,4.8,9.4,6.8,13.7c2-4.2,4.4-9,7.3-14.3l12.9-23.9h10.2l-26.5,46.7
			v34.3H323.5z"/>
		<path d="M366.4,982.4v-81.1h13.2l15.8,57.4l3.2,12c0.8-3,2-7.3,3.5-13l15.9-56.4h11.8v81.1h-8.5v-67.8l-19.4,67.8h-7.9l-19.3-69
			v69H366.4z"/>
		<path d="M436.8,982.4l25.6-81.1h9.4l27.2,81.1H489l-7.7-24.6h-28l-7.2,24.6H436.8z M455.9,949.1h22.6l-6.9-22.5
			c-2.1-6.9-3.7-12.5-4.7-16.8c-0.9,5.2-2.1,10.4-3.6,15.5L455.9,949.1z"/>
		<path d="M505.7,982.4v-81.1h9l34.9,63.8v-63.8h8.4v81.1h-9l-34.9-63.8v63.8H505.7z"/>
		<path d="M595.9,956.3l8.3-0.9c0.4,4.5,1.4,7.9,3,10.4c1.6,2.5,3.8,4.5,6.7,6c2.9,1.5,6.2,2.3,9.8,2.3c5.2,0,9.3-1.3,12.2-3.8
			c2.9-2.6,4.3-5.9,4.3-10c0-2.4-0.5-4.5-1.6-6.3s-2.6-3.2-4.8-4.4s-6.7-2.8-13.7-4.8c-6.3-1.9-10.7-3.7-13.4-5.6
			c-2.7-1.9-4.7-4.3-6.2-7.2c-1.5-2.9-2.2-6.2-2.2-9.8c0-6.6,2.1-11.9,6.4-16.1c4.2-4.2,10-6.2,17.1-6.2c4.9,0,9.3,1,13,2.9
			s6.6,4.8,8.6,8.4c2,3.7,3.1,7.9,3.3,12.9l-8.5,0.8c-0.4-5.3-2-9.2-4.7-11.7c-2.7-2.5-6.5-3.8-11.4-3.8c-5,0-8.8,1.1-11.4,3.3
			c-2.6,2.2-3.9,5.1-3.9,8.7c0,3.3,1,5.8,2.9,7.6c1.9,1.8,6.2,3.6,12.9,5.5c6.6,1.8,11.2,3.4,13.8,4.7c4.1,2.1,7.1,4.8,9.2,8.2
			c2.1,3.4,3.1,7.4,3.1,12.1c0,4.6-1.1,8.9-3.3,12.7c-2.2,3.8-5.1,6.7-8.9,8.7c-3.7,2-8.2,3-13.5,3c-8.2,0-14.8-2.5-19.7-7.4
			C598.6,971.4,596.1,964.7,595.9,956.3z"/>
		<path d="M661,982.4v-81.1H709v9.6h-39.3v24.8h36.8v9.6h-36.8v27.6h40.8v9.6H661z"/>
		<path d="M722.7,982.4v-81.1h29.5c6.2,0,10.7,0.8,13.6,2.3c2.9,1.5,5.3,4,7.2,7.5c1.9,3.5,2.8,7.6,2.8,12.2
			c0,6.1-1.6,11.1-4.8,14.9c-3.2,3.8-7.8,6.2-13.9,7.2c2.5,1.5,4.3,3,5.6,4.5c2.6,3.1,4.9,6.5,6.9,10.3l11.6,22.1h-11.1l-8.9-16.9
			c-3.4-6.6-6-11-7.8-13.3c-1.7-2.3-3.4-3.8-5.1-4.6s-3.9-1.2-6.9-1.2h-10.2v36H722.7z M731.5,937.1h18.9c4.1,0,7.3-0.5,9.4-1.5
			c2.1-1,3.8-2.6,5.1-4.7c1.3-2.1,1.9-4.6,1.9-7.5c0-4.1-1.2-7.3-3.6-9.7c-2.4-2.3-6-3.5-10.7-3.5h-21V937.1z"/>
		<path d="M807.2,982.4l-25.8-81.1h9.5l17.3,58.9c1.3,4.6,2.5,9,3.5,13.3c1-4.5,2.2-8.9,3.5-13.3l18-58.9h9l-26,81.1H807.2z"/>
		<path d="M851.8,982.4v-81.1h8.8v81.1H851.8z"/>
		<path d="M923.1,954l8.8,2.7c-2,9.1-5.4,15.9-10.3,20.4c-4.9,4.5-10.8,6.7-17.8,6.7c-6.2,0-11.4-1.5-15.8-4.5
			c-4.4-3-7.9-7.8-10.7-14.5c-2.8-6.6-4.2-14.5-4.2-23.5c0-8.9,1.4-16.5,4.2-22.7c2.8-6.2,6.6-10.8,11.3-14
			c4.8-3.2,10.1-4.7,15.9-4.7c6.4,0,11.9,2,16.5,6c4.6,4,7.8,9.8,9.7,17.6l-8.6,2.5c-3-11.2-8.9-16.9-17.8-16.9
			c-4.4,0-8.3,1.1-11.5,3.4c-3.2,2.3-5.8,5.8-7.8,10.6c-1.9,4.8-2.9,10.9-2.9,18.2c0,11.1,2,19.4,5.9,25c3.9,5.6,9.1,8.3,15.6,8.3
			c4.8,0,8.9-1.7,12.4-5.1C919.6,966.1,921.9,960.9,923.1,954z"/>
		<path d="M943.1,982.4v-81.1h48.1v9.6h-39.3v24.8h36.8v9.6h-36.8v27.6h40.8v9.6H943.1z"/>
		<path d="M1001.9,956.3l8.3-0.9c0.4,4.5,1.4,7.9,3,10.4c1.6,2.5,3.8,4.5,6.7,6c2.9,1.5,6.2,2.3,9.8,2.3c5.2,0,9.3-1.3,12.2-3.8
			c2.9-2.6,4.3-5.9,4.3-10c0-2.4-0.5-4.5-1.6-6.3s-2.6-3.2-4.8-4.4s-6.7-2.8-13.7-4.8c-6.3-1.9-10.7-3.7-13.4-5.6
			c-2.7-1.9-4.7-4.3-6.2-7.2c-1.5-2.9-2.2-6.2-2.2-9.8c0-6.6,2.1-11.9,6.4-16.1c4.2-4.2,10-6.2,17.1-6.2c4.9,0,9.3,1,13,2.9
			s6.6,4.8,8.6,8.4c2,3.7,3.1,7.9,3.3,12.9l-8.5,0.8c-0.4-5.3-2-9.2-4.7-11.7c-2.7-2.5-6.5-3.8-11.4-3.8c-5,0-8.8,1.1-11.4,3.3
			c-2.6,2.2-3.9,5.1-3.9,8.7c0,3.3,1,5.8,2.9,7.6c1.9,1.8,6.2,3.6,12.9,5.5c6.6,1.8,11.2,3.4,13.8,4.7c4.1,2.1,7.1,4.8,9.2,8.2
			c2.1,3.4,3.1,7.4,3.1,12.1c0,4.6-1.1,8.9-3.3,12.7c-2.2,3.8-5.1,6.7-8.9,8.7c-3.7,2-8.2,3-13.5,3c-8.2,0-14.8-2.5-19.7-7.4
			C1004.6,971.4,1002.1,964.7,1001.9,956.3z"/>
	</g>
</g>
</svg>
